<svg xmlns="http://www.w3.org/2000/svg" width="192" height="192" viewBox="0 0 512 512" role="img" aria-labelledby="title desc">
  <title id="title">Extended IP Calculator icon</title>
  <desc id="desc">A minimalist network calculator icon with CIDR blocks.</desc>
  <rect width="512" height="512" rx="112" fill="#1f2937" />
  <circle cx="256" cy="256" r="178" fill="#111827" opacity="0.42" />
  <path d="M156 168h200a28 28 0 0 1 28 28v120a28 28 0 0 1-28 28H156a28 28 0 0 1-28-28V196a28 28 0 0 1 28-28Z" fill="#f9fafb" />
  <path d="M176 214h160M176 256h112M176 298h160" stroke="#1f2937" stroke-width="24" stroke-linecap="round" />
  <path d="M372 132 132 372" stroke="#60a5fa" stroke-width="26" stroke-linecap="round" />
  <path d="M324 128h52a16 16 0 0 1 16 16v52" fill="none" stroke="#60a5fa" stroke-width="26" stroke-linecap="round" stroke-linejoin="round" />
  <path d="M188 384h-52a16 16 0 0 1-16-16v-52" fill="none" stroke="#60a5fa" stroke-width="26" stroke-linecap="round" stroke-linejoin="round" />
  <text x="256" y="423" text-anchor="middle" font-family="Arial, sans-serif" font-size="54" font-weight="700" fill="#f9fafb">/24</text>
</svg>
